<svg width="120" height="40" viewBox="0 0 120 40" fill="none" xmlns="http://www.w3.org/2000/svg">
<path d="M58.2192 24.3686C58.2924 24.1158 58.4634 23.5371 58.7351 22.6325C59.0067 21.7279 59.3059 20.8233 59.6325 19.9187L65.9422 0.760861H73.8301L60.994 39.2928H51.8576L53.0542 19.3766C53.1274 18.073 53.1977 17.0344 53.2709 16.2547C53.3442 15.478 53.3991 14.9602 53.4327 14.7074C53.3594 14.9602 53.1885 15.5389 52.9168 16.4435C52.6451 17.3481 52.346 18.2527 52.0194 19.1573L45.383 39.2898H37.4951L50.3313 0.757812H59.6875L58.5458 19.6964L58.2192 24.3686Z" fill="white"/>
<path d="M79.2483 24.7499L81.6416 17.4766H93.391L86.1014 39.2934H79.9565L80.4999 36.1989C79.52 37.3928 78.531 38.2517 77.5358 38.7756C76.5376 39.2995 75.3868 39.5614 74.0833 39.5614C71.8336 39.5614 70.176 38.739 69.1076 37.0913C68.0392 35.4466 67.502 33.1744 67.502 30.281C67.502 26.8088 68.2468 22.7549 69.7334 18.1253C73.6865 6.04279 79.2697 0 86.486 0C89.4226 0 91.6449 0.932001 93.1498 2.79601C94.6548 4.66001 95.4973 7.09358 95.6804 10.0937L88.0123 12.646C87.8658 10.5475 87.6033 9.08246 87.2248 8.25097C86.8432 7.41947 86.3273 7.0022 85.674 7.0022C84.5141 7.0022 83.3815 7.9068 82.2734 9.71599C81.1684 11.5252 79.8344 14.7994 78.2746 19.5386C76.7879 24.0981 76.0431 27.5702 76.0431 29.9581C76.0431 31.95 76.5865 32.943 77.6762 32.943C78.763 32.943 79.7795 32.2028 80.7227 30.7165C81.666 29.2332 82.4993 27.4058 83.2259 25.2341L83.3877 24.7468H79.2483V24.7499Z" fill="white"/>
<path d="M94.2829 37.2587C92.833 35.4312 92.1064 32.9276 92.1064 29.7417C92.1064 26.4127 92.833 22.5416 94.2829 18.1282C96.203 12.1586 98.581 7.65387 101.408 4.61419C104.237 1.57452 107.354 0.0546875 110.764 0.0546875C113.917 0.0546875 116.222 0.968416 117.672 2.79587C119.122 4.62333 119.848 7.13 119.848 10.3128C119.848 13.6418 119.122 17.513 117.672 21.9263C115.749 27.896 113.374 32.4007 110.547 35.4404C107.717 38.48 104.601 39.9999 101.191 39.9999C98.0346 39.9999 95.7329 39.0861 94.2829 37.2587ZM105.187 30.3387C106.292 28.493 107.608 25.2188 109.131 20.5161C110.797 15.451 111.634 11.8509 111.634 9.71585C111.634 7.87012 111.054 6.94725 109.894 6.94725C108.914 6.94725 107.873 7.87012 106.765 9.71585C105.66 11.5616 104.344 14.8358 102.821 19.5384C101.151 24.5304 100.318 28.1305 100.318 30.3387C100.318 32.1844 100.898 33.1073 102.058 33.1073C103.041 33.1073 104.082 32.1844 105.187 30.3387Z" fill="white"/>
<path d="M10.7051 39.2937L32.7448 0.761719H44.3294L36.704 39.2937H28.4376L30.0005 32.3463H23.0925L19.463 39.2937H10.7051ZM34.439 13.027L35.5501 8.41268C34.732 10.1853 34.0208 11.6138 33.4225 12.7011L26.951 25.076H31.6825L34.439 13.027Z" fill="white"/>
<path d="M12.1585 15.6118C12.595 14.6006 13.5169 13.2056 14.4968 11.433L20.3944 0.763672H30.0223L12.7568 26.7928L8.59305 39.2956H0L4.38047 26.141L4.24311 0.763672H12.7293L12.3233 10.9457C12.1768 13.367 12.2684 14.9234 12.1585 15.6118Z" fill="white"/>
</svg>
